<svg width="140" height="59" viewBox="0 0 140 59" fill="none" xmlns="http://www.w3.org/2000/svg">
<g clip-path="url(#clip0_29010_10612)">
<path d="M81.1748 0H1.565C0.700674 0 0 0.687815 0 1.53628V20.3571C0 21.2056 0.700674 21.8934 1.565 21.8934H81.1748C82.0391 21.8934 82.7398 21.2056 82.7398 20.3571V1.53628C82.7398 0.687815 82.0391 0 81.1748 0Z" fill="#14347C"/>
<path d="M8.70423 51.3244C7.65539 51.3247 6.60771 51.2555 5.56837 51.1173C4.60005 51.0022 3.65299 50.7543 2.75489 50.3808C1.96906 50.0666 1.27875 49.5594 0.750285 48.9078C0.220983 48.2017 -0.0440087 47.338 2.17961e-05 46.4624V25.2652H5.47459V35.4323L4.42539 33.7061C4.89829 33.1738 5.4873 32.7529 6.14865 32.4748C6.83071 32.1709 7.54974 31.9543 8.28807 31.8303C8.88141 31.7185 9.48344 31.6569 10.0875 31.6462C12.8893 31.6462 15.0228 32.4748 16.4882 34.1319C17.9535 35.789 18.6843 38.2133 18.6804 41.4048C18.7231 43.0072 18.4689 44.6039 17.9301 46.1172C17.5011 47.2914 16.7798 48.3417 15.8317 49.1725C14.9139 49.9405 13.8384 50.5057 12.6783 50.8296C11.3843 51.1792 10.0461 51.3458 8.70423 51.3244V51.3244ZM8.62803 46.7558C9.54558 46.8126 10.4596 46.6003 11.2539 46.1459C11.9053 45.7146 12.3984 45.0893 12.6607 44.3622C12.96 43.5213 13.1049 42.6349 13.0886 41.7442C13.1269 40.6005 12.9275 39.4611 12.5024 38.3955C12.2181 37.6466 11.6962 37.0072 11.0136 36.5715C10.329 36.1861 9.55195 35.9875 8.76284 35.9961C8.207 36.0034 7.65328 36.065 7.10992 36.1803C6.5453 36.2882 6.0014 36.4823 5.49803 36.7556V45.0009C5.48666 45.192 5.51802 45.3832 5.58991 45.5611C5.6618 45.7391 5.77249 45.8994 5.91419 46.0308C6.24987 46.3078 6.65439 46.4925 7.08648 46.566C7.59112 46.6899 8.10803 46.7593 8.62803 46.7731V46.7558Z" fill="black"/>
<path d="M31.0948 51.3244C27.8945 51.3244 25.4874 50.4824 23.8735 48.7984C22.2597 47.1145 21.4547 44.6422 21.4586 41.3817C21.4586 37.8719 22.2773 35.3478 23.9146 33.8096C25.5519 32.2714 27.9453 31.5043 31.0948 31.5081C32.9356 31.4492 34.7653 31.8097 36.4404 32.5611C37.8784 33.2408 39.0396 34.3785 39.7345 35.789C40.5378 37.5466 40.9169 39.4625 40.8423 41.3875C40.8423 44.648 40.0042 47.1202 38.3278 48.8042C36.6514 50.4881 34.2404 51.3282 31.0948 51.3244ZM31.0948 46.9399C31.9147 46.971 32.7235 46.7453 33.4042 46.2955C34.0479 45.8206 34.5318 45.1673 34.7934 44.4197C35.1301 43.4419 35.2888 42.4136 35.2623 41.3817C35.3028 40.2756 35.1441 39.1712 34.7934 38.1193C34.5395 37.4028 34.0429 36.7935 33.3866 36.3931C32.6831 36.0225 31.8928 35.84 31.0948 35.8638C30.2734 35.832 29.4598 36.0317 28.7502 36.4392C28.1154 36.8461 27.6432 37.4559 27.4138 38.1653C27.092 39.209 26.9474 40.2976 26.9859 41.3875C26.9859 43.2517 27.3161 44.6441 27.9765 45.5648C28.3323 46.0385 28.8055 46.4152 29.3513 46.6589C29.897 46.9026 30.4972 47.0053 31.0948 46.9572V46.9399Z" fill="black"/>
<path d="M53.2158 51.3244C50.0155 51.3244 47.6084 50.4824 45.9946 48.7984C44.3807 47.1145 43.5758 44.6422 43.5797 41.3817C43.5797 37.8719 44.3983 35.3478 46.0356 33.8096C47.6729 32.2714 50.0663 31.5043 53.2158 31.5081C55.0566 31.4492 56.8863 31.8097 58.5615 32.5611C59.9876 33.2446 61.1377 34.3796 61.8263 35.7832C62.6296 37.5408 63.0087 39.4567 62.9341 41.3817C62.9341 44.6422 62.0959 47.1145 60.4195 48.7984C58.7432 50.4824 56.3419 51.3244 53.2158 51.3244ZM53.2158 46.9399C54.0358 46.971 54.8445 46.7453 55.5252 46.2955C56.1689 45.8207 56.6528 45.1673 56.9144 44.4197C57.2512 43.4419 57.4099 42.4136 57.3833 41.3817C57.4238 40.2756 57.2651 39.1712 56.9144 38.1193C56.6605 37.4028 56.164 36.7935 55.5077 36.3931C54.8042 36.0225 54.0138 35.84 53.2158 35.8638C52.3944 35.832 51.5809 36.0317 50.8713 36.4392C50.2364 36.8461 49.7643 37.4559 49.5349 38.1653C49.213 39.209 49.0684 40.2976 49.107 41.3875C49.107 43.2517 49.4372 44.6441 50.0976 45.5648C50.4533 46.0385 50.9265 46.4152 51.4723 46.6589C52.0181 46.9026 52.6183 47.0053 53.2158 46.9572V46.9399Z" fill="black"/>
<path d="M72.3592 50.7893H66.8085V25.1213H72.4354L72.3592 50.7893ZM71.187 40.5129L78.162 32.1525H84.9261L74.3756 43.0849L71.187 40.5129ZM75.4248 38.1193L85.4419 50.7778H78.3496L71.4449 41.8248L75.4248 38.1193Z" fill="black"/>
<path d="M88.865 29.6151V25.3802H94.6443V29.6151H88.865ZM88.9822 50.7893V32.4115H94.5681L94.6092 50.7893H88.9822Z" fill="black"/>
<path d="M99.5972 33.7348C100.203 33.4384 100.83 33.1864 101.473 32.9811C102.309 32.7065 103.16 32.4798 104.023 32.3021C104.949 32.1065 105.881 31.9454 106.819 31.8246C107.683 31.7049 108.554 31.6434 109.427 31.6405C110.904 31.6052 112.376 31.8233 113.776 32.2849C114.904 32.6565 115.874 33.3876 116.531 34.362C117.23 35.5456 117.563 36.9027 117.492 38.2689V50.7893H111.9V39.3736C111.904 38.9359 111.834 38.5006 111.695 38.0848C111.564 37.6851 111.335 37.323 111.029 37.0301C110.722 36.7373 110.347 36.5225 109.937 36.4046C109.379 36.2364 108.797 36.1568 108.214 36.1687C107.631 36.1704 107.051 36.238 106.484 36.3701C106.033 36.4662 105.593 36.6089 105.171 36.7959V50.7893H99.5855L99.5972 33.7348Z" fill="black"/>
<path d="M129.719 51.3243C128.166 51.2796 126.644 50.8859 125.27 50.1736C124.016 49.4666 123.008 48.4035 122.381 47.124C121.638 45.5386 121.285 43.8044 121.349 42.0606C121.296 40.3156 121.562 38.5753 122.134 36.9224C122.57 35.6905 123.325 34.5916 124.327 33.7348C125.319 32.9477 126.482 32.3946 127.726 32.118C129.176 31.7836 130.662 31.6232 132.152 31.6404C133.542 31.6138 134.927 31.8081 136.255 32.2158C137.304 32.5298 138.25 33.1138 138.992 33.9074C139.649 34.6671 139.995 35.6388 139.965 36.6347V51.0194C139.99 52.2 139.775 53.3738 139.332 54.4717C138.918 55.448 138.266 56.3094 137.433 56.9804C136.535 57.6837 135.503 58.2023 134.397 58.5051C133.061 58.8693 131.679 59.0437 130.294 59.023C128.853 59.044 127.414 58.9265 125.997 58.672C125.053 58.5149 124.137 58.2242 123.277 57.8089V52.9814C123.653 53.131 124.203 53.3267 124.93 53.5568C125.727 53.8164 126.542 54.0183 127.369 54.161C128.26 54.3212 129.164 54.4021 130.071 54.4026C131.002 54.4474 131.932 54.2841 132.79 53.9251C133.371 53.6572 133.84 53.2024 134.121 52.6362C134.38 52.0563 134.508 51.4281 134.496 50.795V47.7742L135.586 48.5452C135.189 49.1049 134.707 49.6016 134.156 50.0182C133.577 50.4532 132.924 50.7844 132.228 50.9964C131.413 51.23 130.567 51.3406 129.719 51.3243V51.3243ZM131.143 47.1988C131.749 47.2028 132.353 47.1352 132.943 46.9974C133.493 46.8611 134.023 46.6561 134.52 46.3875V37.8603C134.534 37.6435 134.501 37.4262 134.423 37.2228C134.345 37.0195 134.224 36.8347 134.068 36.6808C133.75 36.3968 133.362 36.1986 132.943 36.1054C132.475 36.0068 131.997 35.9586 131.519 35.9615C130.554 35.9096 129.599 36.1682 128.799 36.698C128.117 37.2153 127.619 37.9299 127.375 38.7407C127.073 39.7001 126.927 40.7 126.941 41.7039C126.858 43.1378 127.271 44.5572 128.113 45.7316C128.462 46.2046 128.923 46.587 129.456 46.8456C129.989 47.1043 130.578 47.2315 131.173 47.2161L131.143 47.1988Z" fill="black"/>
<path d="M5.20496 17.4054V5.37408H9.04419C10.955 5.37408 12.3911 5.88042 13.3523 6.88159C14.3136 7.88276 14.7942 9.38452 14.7942 11.3811C14.7942 13.3777 14.3136 14.8795 13.3523 15.8864C12.3911 16.8933 10.955 17.4054 9.04419 17.4054H5.20496ZM6.52964 16.1798H8.95627C10.5193 16.1798 11.6564 15.7962 12.3676 15.029C13.0827 14.258 13.4344 13.044 13.4344 11.3869C13.4344 9.72975 13.0827 8.50993 12.3676 7.74467C11.6525 6.97941 10.5213 6.5939 8.95627 6.5939H6.52964V16.1798Z" fill="white"/>
<path d="M19.2958 17.4054V5.37408H20.6205V17.4054H19.2958Z" fill="white"/>
<path d="M30.7959 17.5838C29.705 17.6212 28.6228 17.3814 27.6542 16.8876C26.8049 16.4209 26.1356 15.6931 25.7492 14.8162C24.9045 12.6032 24.9045 10.1648 25.7492 7.95185C26.1395 7.08186 26.8084 6.36066 27.6542 5.89773C28.6256 5.41248 29.7065 5.1769 30.7959 5.21302C31.4616 5.21332 32.1254 5.28081 32.777 5.41441C33.4243 5.54533 34.0538 5.75002 34.6527 6.02431V7.37646C34.0678 7.1202 33.4668 6.9011 32.8532 6.72053C32.2334 6.53771 31.5897 6.44467 30.9424 6.44434C30.0623 6.41144 29.1877 6.5954 28.3986 6.97945C27.7272 7.33476 27.2029 7.90848 26.9156 8.60204C26.57 9.49001 26.4085 10.4368 26.4409 11.3869C26.4098 12.3406 26.5711 13.291 26.9156 14.1833C27.2026 14.8785 27.7268 15.4541 28.3986 15.8116C29.1877 16.1957 30.0623 16.3796 30.9424 16.3467C31.4213 16.3455 31.8993 16.309 32.3726 16.2374C32.8395 16.1648 33.3 16.0571 33.75 15.9152V12.4629H30.8193V11.22H35.0982V16.6459C34.4349 16.9539 33.739 17.1893 33.0232 17.3479C32.292 17.5072 31.5449 17.5864 30.7959 17.5838V17.5838Z" fill="white"/>
<path d="M40.0335 17.4054V5.37408H41.3582V17.4054H40.0335Z" fill="white"/>
<path d="M49.4587 17.4054V6.60541H45.1212V5.37408H55.0856V6.60541H50.7658V17.4054H49.4587Z" fill="white"/>
<path d="M56.5627 17.4054L61.4511 5.37408H62.7758L67.6408 17.4054H66.2282L62.0079 6.5824L62.2834 6.54787L58.0222 17.4054H56.5627ZM58.7138 13.6539L59.3 12.411H65.2903L65.3841 13.6539H58.7138Z" fill="white"/>
<path d="M71.3862 17.4054V5.37408H72.705V16.1395H79.0061V17.4054H71.3862Z" fill="white"/>
</g>
<defs>
<clipPath id="clip0_29010_10612">
<rect width="140" height="59" fill="white"/>
</clipPath>
</defs>
</svg>
